<svg width="20" height="20" xmlns="http://www.w3.org/2000/svg">
 <title>Layer 1</title>
 <g>
  <title>Layer 1</title>
  <g id="magnifying_glass">
   <path stroke="#ffffff" fill="#ffffff" id="svg_3" d="m16.02804,18.29517l-3.93884,-3.93884c-1.07953,0.70636 -2.36979,1.1206 -3.76198,1.1206c-3.7962,0 -6.86622,-3.07687 -6.86622,-6.87307c0,-3.78899 3.06966,-6.86586 6.86622,-6.86586c3.78971,0 6.8655,3.07687 6.8655,6.86586c0,1.32519 -0.37317,2.55997 -1.01866,3.60601l3.96693,3.96621c0.21,0.20424 0.03386,0.71357 -0.38758,1.13392l-0.59074,0.59218c-0.42144,0.42036 -0.93077,0.5965 -1.13465,0.39298l0.00002,0.00001zm-3.11685,-9.69131c0,-2.53332 -2.05137,-4.58433 -4.58433,-4.58433c-2.53332,0 -4.59081,2.05101 -4.59081,4.58433c0,2.53332 2.05749,4.59081 4.59081,4.59081c2.53296,0 4.58433,-2.05713 4.58433,-4.59081z"/>
  </g>
 </g>
</svg>